<svg width="157" height="41" viewBox="0 0 157 41" fill="none" xmlns="http://www.w3.org/2000/svg">
<mask id="path-1-outside-1_0_370" maskUnits="userSpaceOnUse" x="-0.58667" y="-0.878662" width="157" height="42" fill="black">
<rect fill="white" x="-0.58667" y="-0.878662" width="157" height="42"/>
<path d="M0.999978 39.1213V2.7577H14.9204C17.5483 2.7577 19.7322 3.172 21.4723 4.0006C23.2242 4.81736 24.5322 5.93597 25.3963 7.35642C26.2722 8.77688 26.7102 10.3867 26.7102 12.186C26.7102 13.6656 26.4261 14.9322 25.8579 15.9857C25.2898 17.0273 24.5263 17.8737 23.5674 18.5247C22.6086 19.1758 21.5374 19.6434 20.3537 19.9274V20.2826C21.6439 20.3536 22.8809 20.7501 24.0646 21.4722C25.2602 22.1824 26.2367 23.1886 26.9943 24.4907C27.7519 25.7927 28.1307 27.3671 28.1307 29.2137C28.1307 31.0958 27.6749 32.7885 26.7635 34.2918C25.852 35.7833 24.4789 36.9611 22.6442 37.8252C20.8094 38.6893 18.5012 39.1213 15.7194 39.1213H0.999978ZM7.58734 33.6171H14.6719C17.063 33.6171 18.7853 33.1613 19.8388 32.2499C20.9041 31.3266 21.4368 30.1429 21.4368 28.6988C21.4368 27.6216 21.1704 26.6509 20.6378 25.7868C20.1051 24.9109 19.3475 24.2243 18.365 23.7272C17.3826 23.2182 16.2107 22.9637 14.8494 22.9637H7.58734V33.6171ZM7.58734 18.2229H14.1037C15.24 18.2229 16.2639 18.0158 17.1754 17.6015C18.0869 17.1753 18.803 16.5775 19.3238 15.8081C19.8565 15.0269 20.1228 14.1036 20.1228 13.0382C20.1228 11.6296 19.6257 10.4696 18.6314 9.55813C17.6489 8.64667 16.187 8.19094 14.2457 8.19094H7.58734V18.2229ZM33.5772 39.1213V11.8486H40.0048V39.1213H33.5772ZM36.8087 7.97787C35.7908 7.97787 34.9148 7.64051 34.1809 6.9658C33.447 6.27924 33.0801 5.45656 33.0801 4.49776C33.0801 3.52711 33.447 2.70443 34.1809 2.02972C34.9148 1.34316 35.7908 0.999888 36.8087 0.999888C37.8386 0.999888 38.7145 1.34316 39.4366 2.02972C40.1705 2.70443 40.5374 3.52711 40.5374 4.49776C40.5374 5.45656 40.1705 6.27924 39.4366 6.9658C38.7145 7.64051 37.8386 7.97787 36.8087 7.97787ZM58.5106 39.654C55.7881 39.654 53.4503 39.0562 51.4971 37.8607C49.5558 36.6651 48.0585 35.0139 47.0049 32.9068C45.9633 30.788 45.4424 28.3496 45.4424 25.5915C45.4424 22.8216 45.9751 20.3773 47.0405 18.2584C48.1058 16.1277 49.6091 14.4705 51.5504 13.2868C53.5035 12.0913 55.8118 11.4935 58.4751 11.4935C60.6887 11.4935 62.6477 11.9019 64.3523 12.7186C66.0686 13.5236 67.4358 14.6658 68.4538 16.1455C69.4718 17.6133 70.0518 19.3297 70.1939 21.2946H64.0504C63.8018 19.9807 63.21 18.8858 62.2748 18.0098C61.3515 17.122 60.1146 16.6782 58.5639 16.6782C57.25 16.6782 56.0959 17.0333 55.1015 17.7435C54.1072 18.4419 53.3319 19.448 52.7755 20.762C52.231 22.0759 51.9588 23.6502 51.9588 25.485C51.9588 27.3434 52.231 28.9414 52.7755 30.279C53.3201 31.6048 54.0835 32.6287 55.066 33.3507C56.0603 34.061 57.2263 34.4161 58.5639 34.4161C59.5109 34.4161 60.3572 34.2385 61.103 33.8834C61.8605 33.5165 62.4938 32.9897 63.0028 32.3032C63.5118 31.6166 63.861 30.7821 64.0504 29.7996H70.1939C70.04 31.7291 69.4718 33.4395 68.4893 34.931C67.5068 36.4106 66.1692 37.5707 64.4765 38.4111C62.7838 39.2397 60.7952 39.654 58.5106 39.654ZM87.3681 39.654C84.6455 39.654 82.3077 39.0562 80.3546 37.8607C78.4133 36.6651 76.9159 35.0139 75.8624 32.9068C74.8207 30.788 74.2999 28.3496 74.2999 25.5915C74.2999 22.8216 74.8325 20.3773 75.8979 18.2584C76.9632 16.1277 78.4665 14.4705 80.4078 13.2868C82.361 12.0913 84.6692 11.4935 87.3325 11.4935C89.5461 11.4935 91.5051 11.9019 93.2097 12.7186C94.9261 13.5236 96.2932 14.6658 97.3112 16.1455C98.3292 17.6133 98.9092 19.3297 99.0513 21.2946H92.9078C92.6592 19.9807 92.0674 18.8858 91.1323 18.0098C90.209 17.122 88.972 16.6782 87.4213 16.6782C86.1074 16.6782 84.9533 17.0333 83.959 17.7435C82.9646 18.4419 82.1893 19.448 81.633 20.762C81.0885 22.0759 80.8162 23.6502 80.8162 25.485C80.8162 27.3434 81.0885 28.9414 81.633 30.279C82.1775 31.6048 82.941 32.6287 83.9235 33.3507C84.9178 34.061 86.0837 34.4161 87.4213 34.4161C88.3683 34.4161 89.2146 34.2385 89.9604 33.8834C90.718 33.5165 91.3512 32.9897 91.8602 32.3032C92.3692 31.6166 92.7184 30.7821 92.9078 29.7996H99.0513C98.8974 31.7291 98.3292 33.4395 97.3467 34.931C96.3643 36.4106 95.0267 37.5707 93.334 38.4111C91.6413 39.2397 89.6526 39.654 87.3681 39.654ZM112.177 39.6718C110.449 39.6718 108.892 39.364 107.507 38.7485C106.134 38.1211 105.045 37.1978 104.24 35.9786C103.447 34.7594 103.051 33.256 103.051 31.4686C103.051 29.9298 103.335 28.6573 103.903 27.6512C104.471 26.645 105.247 25.8401 106.229 25.2364C107.212 24.6327 108.318 24.177 109.549 23.8692C110.792 23.5496 112.077 23.3188 113.402 23.1767C115 23.011 116.296 22.8631 117.291 22.7328C118.285 22.5908 119.007 22.3777 119.457 22.0936C119.919 21.7977 120.149 21.342 120.149 20.7265V20.6199C120.149 19.2823 119.753 18.2466 118.96 17.5127C118.167 16.7788 117.024 16.4118 115.533 16.4118C113.959 16.4118 112.71 16.7551 111.787 17.4417C110.875 18.1282 110.26 18.939 109.94 19.8742L103.939 19.0219C104.412 17.3647 105.193 15.9798 106.282 14.8671C107.371 13.7425 108.703 12.9021 110.277 12.3458C111.852 11.7776 113.592 11.4935 115.497 11.4935C116.811 11.4935 118.119 11.6474 119.421 11.9551C120.724 12.2629 121.913 12.7719 122.99 13.4821C124.068 14.1805 124.932 15.1334 125.583 16.3408C126.246 17.5482 126.577 19.0574 126.577 20.8685V39.1213H120.398V35.3749H120.185C119.794 36.1325 119.244 36.8427 118.534 37.5056C117.835 38.1566 116.953 38.6834 115.888 39.0858C114.835 39.4765 113.598 39.6718 112.177 39.6718ZM113.846 34.9488C115.136 34.9488 116.255 34.6943 117.202 34.1853C118.149 33.6644 118.877 32.9779 119.386 32.1256C119.907 31.2733 120.167 30.3441 120.167 29.338V26.1242C119.966 26.2899 119.623 26.4438 119.137 26.5858C118.664 26.7279 118.131 26.8522 117.539 26.9587C116.948 27.0652 116.362 27.1599 115.782 27.2428C115.202 27.3256 114.698 27.3967 114.272 27.4559C113.314 27.5861 112.455 27.7991 111.698 28.0951C110.94 28.391 110.342 28.8053 109.904 29.338C109.466 29.8588 109.247 30.5335 109.247 31.3621C109.247 32.5458 109.68 33.4395 110.544 34.0432C111.408 34.6469 112.509 34.9488 113.846 34.9488ZM154.596 19.0574L148.736 19.6966C148.57 19.1048 148.28 18.5484 147.866 18.0276C147.464 17.5068 146.919 17.0865 146.233 16.7669C145.546 16.4473 144.706 16.2875 143.711 16.2875C142.374 16.2875 141.249 16.5775 140.338 17.1576C139.438 17.7376 138.994 18.4892 139.006 19.4125C138.994 20.2056 139.284 20.8507 139.876 21.3479C140.48 21.8451 141.474 22.2534 142.859 22.573L147.511 23.5674C150.091 24.1237 152.009 25.0056 153.264 26.213C154.53 27.4203 155.17 29.0006 155.181 30.9537C155.17 32.6701 154.667 34.1853 153.672 35.4992C152.69 36.8013 151.323 37.8193 149.571 38.5532C147.819 39.2871 145.806 39.654 143.534 39.654C140.196 39.654 137.509 38.9556 135.473 37.5588C133.437 36.1502 132.223 34.1912 131.833 31.6817L138.1 31.078C138.385 32.3091 138.988 33.2383 139.912 33.8657C140.835 34.493 142.036 34.8067 143.516 34.8067C145.043 34.8067 146.268 34.493 147.191 33.8657C148.127 33.2383 148.594 32.463 148.594 31.5397C148.594 30.7584 148.292 30.1133 147.689 29.6043C147.097 29.0953 146.173 28.7047 144.919 28.4324L140.267 27.4559C137.651 26.9113 135.715 25.994 134.461 24.7037C133.206 23.4016 132.584 21.7563 132.596 19.7676C132.584 18.0868 133.04 16.6308 133.963 15.3997C134.899 14.1568 136.195 13.198 137.852 12.5233C139.521 11.8368 141.444 11.4935 143.622 11.4935C146.819 11.4935 149.334 12.1741 151.169 13.5354C153.015 14.8967 154.158 16.7373 154.596 19.0574Z"/>
</mask>
<path d="M0.999978 39.1213V2.7577H14.9204C17.5483 2.7577 19.7322 3.172 21.4723 4.0006C23.2242 4.81736 24.5322 5.93597 25.3963 7.35642C26.2722 8.77688 26.7102 10.3867 26.7102 12.186C26.7102 13.6656 26.4261 14.9322 25.8579 15.9857C25.2898 17.0273 24.5263 17.8737 23.5674 18.5247C22.6086 19.1758 21.5374 19.6434 20.3537 19.9274V20.2826C21.6439 20.3536 22.8809 20.7501 24.0646 21.4722C25.2602 22.1824 26.2367 23.1886 26.9943 24.4907C27.7519 25.7927 28.1307 27.3671 28.1307 29.2137C28.1307 31.0958 27.6749 32.7885 26.7635 34.2918C25.852 35.7833 24.4789 36.9611 22.6442 37.8252C20.8094 38.6893 18.5012 39.1213 15.7194 39.1213H0.999978ZM7.58734 33.6171H14.6719C17.063 33.6171 18.7853 33.1613 19.8388 32.2499C20.9041 31.3266 21.4368 30.1429 21.4368 28.6988C21.4368 27.6216 21.1704 26.6509 20.6378 25.7868C20.1051 24.9109 19.3475 24.2243 18.365 23.7272C17.3826 23.2182 16.2107 22.9637 14.8494 22.9637H7.58734V33.6171ZM7.58734 18.2229H14.1037C15.24 18.2229 16.2639 18.0158 17.1754 17.6015C18.0869 17.1753 18.803 16.5775 19.3238 15.8081C19.8565 15.0269 20.1228 14.1036 20.1228 13.0382C20.1228 11.6296 19.6257 10.4696 18.6314 9.55813C17.6489 8.64667 16.187 8.19094 14.2457 8.19094H7.58734V18.2229ZM33.5772 39.1213V11.8486H40.0048V39.1213H33.5772ZM36.8087 7.97787C35.7908 7.97787 34.9148 7.64051 34.1809 6.9658C33.447 6.27924 33.0801 5.45656 33.0801 4.49776C33.0801 3.52711 33.447 2.70443 34.1809 2.02972C34.9148 1.34316 35.7908 0.999888 36.8087 0.999888C37.8386 0.999888 38.7145 1.34316 39.4366 2.02972C40.1705 2.70443 40.5374 3.52711 40.5374 4.49776C40.5374 5.45656 40.1705 6.27924 39.4366 6.9658C38.7145 7.64051 37.8386 7.97787 36.8087 7.97787ZM58.5106 39.654C55.7881 39.654 53.4503 39.0562 51.4971 37.8607C49.5558 36.6651 48.0585 35.0139 47.0049 32.9068C45.9633 30.788 45.4424 28.3496 45.4424 25.5915C45.4424 22.8216 45.9751 20.3773 47.0405 18.2584C48.1058 16.1277 49.6091 14.4705 51.5504 13.2868C53.5035 12.0913 55.8118 11.4935 58.4751 11.4935C60.6887 11.4935 62.6477 11.9019 64.3523 12.7186C66.0686 13.5236 67.4358 14.6658 68.4538 16.1455C69.4718 17.6133 70.0518 19.3297 70.1939 21.2946H64.0504C63.8018 19.9807 63.21 18.8858 62.2748 18.0098C61.3515 17.122 60.1146 16.6782 58.5639 16.6782C57.25 16.6782 56.0959 17.0333 55.1015 17.7435C54.1072 18.4419 53.3319 19.448 52.7755 20.762C52.231 22.0759 51.9588 23.6502 51.9588 25.485C51.9588 27.3434 52.231 28.9414 52.7755 30.279C53.3201 31.6048 54.0835 32.6287 55.066 33.3507C56.0603 34.061 57.2263 34.4161 58.5639 34.4161C59.5109 34.4161 60.3572 34.2385 61.103 33.8834C61.8605 33.5165 62.4938 32.9897 63.0028 32.3032C63.5118 31.6166 63.861 30.7821 64.0504 29.7996H70.1939C70.04 31.7291 69.4718 33.4395 68.4893 34.931C67.5068 36.4106 66.1692 37.5707 64.4765 38.4111C62.7838 39.2397 60.7952 39.654 58.5106 39.654ZM87.3681 39.654C84.6455 39.654 82.3077 39.0562 80.3546 37.8607C78.4133 36.6651 76.9159 35.0139 75.8624 32.9068C74.8207 30.788 74.2999 28.3496 74.2999 25.5915C74.2999 22.8216 74.8325 20.3773 75.8979 18.2584C76.9632 16.1277 78.4665 14.4705 80.4078 13.2868C82.361 12.0913 84.6692 11.4935 87.3325 11.4935C89.5461 11.4935 91.5051 11.9019 93.2097 12.7186C94.9261 13.5236 96.2932 14.6658 97.3112 16.1455C98.3292 17.6133 98.9092 19.3297 99.0513 21.2946H92.9078C92.6592 19.9807 92.0674 18.8858 91.1323 18.0098C90.209 17.122 88.972 16.6782 87.4213 16.6782C86.1074 16.6782 84.9533 17.0333 83.959 17.7435C82.9646 18.4419 82.1893 19.448 81.633 20.762C81.0885 22.0759 80.8162 23.6502 80.8162 25.485C80.8162 27.3434 81.0885 28.9414 81.633 30.279C82.1775 31.6048 82.941 32.6287 83.9235 33.3507C84.9178 34.061 86.0837 34.4161 87.4213 34.4161C88.3683 34.4161 89.2146 34.2385 89.9604 33.8834C90.718 33.5165 91.3512 32.9897 91.8602 32.3032C92.3692 31.6166 92.7184 30.7821 92.9078 29.7996H99.0513C98.8974 31.7291 98.3292 33.4395 97.3467 34.931C96.3643 36.4106 95.0267 37.5707 93.334 38.4111C91.6413 39.2397 89.6526 39.654 87.3681 39.654ZM112.177 39.6718C110.449 39.6718 108.892 39.364 107.507 38.7485C106.134 38.1211 105.045 37.1978 104.24 35.9786C103.447 34.7594 103.051 33.256 103.051 31.4686C103.051 29.9298 103.335 28.6573 103.903 27.6512C104.471 26.645 105.247 25.8401 106.229 25.2364C107.212 24.6327 108.318 24.177 109.549 23.8692C110.792 23.5496 112.077 23.3188 113.402 23.1767C115 23.011 116.296 22.8631 117.291 22.7328C118.285 22.5908 119.007 22.3777 119.457 22.0936C119.919 21.7977 120.149 21.342 120.149 20.7265V20.6199C120.149 19.2823 119.753 18.2466 118.96 17.5127C118.167 16.7788 117.024 16.4118 115.533 16.4118C113.959 16.4118 112.71 16.7551 111.787 17.4417C110.875 18.1282 110.26 18.939 109.94 19.8742L103.939 19.0219C104.412 17.3647 105.193 15.9798 106.282 14.8671C107.371 13.7425 108.703 12.9021 110.277 12.3458C111.852 11.7776 113.592 11.4935 115.497 11.4935C116.811 11.4935 118.119 11.6474 119.421 11.9551C120.724 12.2629 121.913 12.7719 122.99 13.4821C124.068 14.1805 124.932 15.1334 125.583 16.3408C126.246 17.5482 126.577 19.0574 126.577 20.8685V39.1213H120.398V35.3749H120.185C119.794 36.1325 119.244 36.8427 118.534 37.5056C117.835 38.1566 116.953 38.6834 115.888 39.0858C114.835 39.4765 113.598 39.6718 112.177 39.6718ZM113.846 34.9488C115.136 34.9488 116.255 34.6943 117.202 34.1853C118.149 33.6644 118.877 32.9779 119.386 32.1256C119.907 31.2733 120.167 30.3441 120.167 29.338V26.1242C119.966 26.2899 119.623 26.4438 119.137 26.5858C118.664 26.7279 118.131 26.8522 117.539 26.9587C116.948 27.0652 116.362 27.1599 115.782 27.2428C115.202 27.3256 114.698 27.3967 114.272 27.4559C113.314 27.5861 112.455 27.7991 111.698 28.0951C110.94 28.391 110.342 28.8053 109.904 29.338C109.466 29.8588 109.247 30.5335 109.247 31.3621C109.247 32.5458 109.68 33.4395 110.544 34.0432C111.408 34.6469 112.509 34.9488 113.846 34.9488ZM154.596 19.0574L148.736 19.6966C148.57 19.1048 148.28 18.5484 147.866 18.0276C147.464 17.5068 146.919 17.0865 146.233 16.7669C145.546 16.4473 144.706 16.2875 143.711 16.2875C142.374 16.2875 141.249 16.5775 140.338 17.1576C139.438 17.7376 138.994 18.4892 139.006 19.4125C138.994 20.2056 139.284 20.8507 139.876 21.3479C140.48 21.8451 141.474 22.2534 142.859 22.573L147.511 23.5674C150.091 24.1237 152.009 25.0056 153.264 26.213C154.53 27.4203 155.17 29.0006 155.181 30.9537C155.17 32.6701 154.667 34.1853 153.672 35.4992C152.69 36.8013 151.323 37.8193 149.571 38.5532C147.819 39.2871 145.806 39.654 143.534 39.654C140.196 39.654 137.509 38.9556 135.473 37.5588C133.437 36.1502 132.223 34.1912 131.833 31.6817L138.1 31.078C138.385 32.3091 138.988 33.2383 139.912 33.8657C140.835 34.493 142.036 34.8067 143.516 34.8067C145.043 34.8067 146.268 34.493 147.191 33.8657C148.127 33.2383 148.594 32.463 148.594 31.5397C148.594 30.7584 148.292 30.1133 147.689 29.6043C147.097 29.0953 146.173 28.7047 144.919 28.4324L140.267 27.4559C137.651 26.9113 135.715 25.994 134.461 24.7037C133.206 23.4016 132.584 21.7563 132.596 19.7676C132.584 18.0868 133.04 16.6308 133.963 15.3997C134.899 14.1568 136.195 13.198 137.852 12.5233C139.521 11.8368 141.444 11.4935 143.622 11.4935C146.819 11.4935 149.334 12.1741 151.169 13.5354C153.015 14.8967 154.158 16.7373 154.596 19.0574Z" fill="#54BD95"/>
<path d="M0.999978 39.1213H-2.21729e-05V40.1213H0.999978V39.1213ZM0.999978 2.7577V1.7577H-2.21729e-05V2.7577H0.999978ZM21.4723 4.0006L21.0423 4.90349L21.0497 4.90694L21.4723 4.0006ZM25.3963 7.35642L24.5419 7.87615L24.5451 7.88131L25.3963 7.35642ZM25.8579 15.9857L26.7358 16.4645L26.7381 16.4604L25.8579 15.9857ZM23.5674 18.5247L23.0057 17.6974H23.0057L23.5674 18.5247ZM20.3537 19.9274L20.1203 18.9551L19.3537 19.139V19.9274H20.3537ZM20.3537 20.2826H19.3537V21.229L20.2987 21.281L20.3537 20.2826ZM24.0646 21.4722L23.5438 22.326L23.5539 22.3319L24.0646 21.4722ZM26.9943 24.4907L26.1299 24.9935V24.9935L26.9943 24.4907ZM26.7635 34.2918L27.6168 34.8132L27.6186 34.8102L26.7635 34.2918ZM22.6442 37.8252L22.2181 36.9205L22.6442 37.8252ZM7.58734 33.6171H6.58734V34.6171H7.58734V33.6171ZM19.8388 32.2499L20.493 33.0061L20.4937 33.0056L19.8388 32.2499ZM20.6378 25.7868L19.7833 26.3064L19.7865 26.3116L20.6378 25.7868ZM18.365 23.7272L17.905 24.6151L17.9135 24.6194L18.365 23.7272ZM7.58734 22.9637V21.9637H6.58734V22.9637H7.58734ZM7.58734 18.2229H6.58734V19.2229H7.58734V18.2229ZM17.1754 17.6014L17.5892 18.5119L17.5989 18.5073L17.1754 17.6014ZM19.3238 15.8081L18.4976 15.2448L18.4957 15.2476L19.3238 15.8081ZM18.6314 9.55813L17.9512 10.2912L17.9556 10.2953L18.6314 9.55813ZM7.58734 8.19094V7.19094H6.58734V8.19094H7.58734ZM0.999978 39.1213H1.99998V2.7577H0.999978H-2.21729e-05V39.1213H0.999978ZM0.999978 2.7577V3.7577H14.9204V2.7577V1.7577H0.999978V2.7577ZM14.9204 2.7577V3.7577C17.4506 3.7577 19.4762 4.15765 21.0423 4.90346L21.4723 4.0006L21.9022 3.09774C19.9883 2.18634 17.6459 1.7577 14.9204 1.7577V2.7577ZM21.4723 4.0006L21.0497 4.90694C22.6525 5.65417 23.7963 6.65043 24.542 7.87614L25.3963 7.35642L26.2506 6.8367C25.268 5.22151 23.7959 3.98055 21.8948 3.09426L21.4723 4.0006ZM25.3963 7.35642L24.5451 7.88131C25.3161 9.13164 25.7102 10.557 25.7102 12.186H26.7102H27.7102C27.7102 10.2164 27.2283 8.42212 26.2475 6.83153L25.3963 7.35642ZM26.7102 12.186H25.7102C25.7102 13.5385 25.4508 14.6339 24.9778 15.511L25.8579 15.9857L26.7381 16.4604C27.4014 15.2305 27.7102 13.7927 27.7102 12.186H26.7102ZM25.8579 15.9857L24.98 15.5068C24.4861 16.4123 23.8297 17.1379 23.0057 17.6974L23.5674 18.5247L24.1292 19.3521C25.2228 18.6095 26.0934 17.6424 26.7358 16.4645L25.8579 15.9857ZM23.5674 18.5247L23.0057 17.6974C22.1517 18.2773 21.1927 18.6977 20.1203 18.9551L20.3537 19.9274L20.587 20.8998C21.8821 20.589 23.0656 20.0742 24.1292 19.3521L23.5674 18.5247ZM20.3537 19.9274H19.3537V20.2826H20.3537H21.3537V19.9274H20.3537ZM20.3537 20.2826L20.2987 21.281C21.4122 21.3423 22.4905 21.6833 23.5438 22.3259L24.0646 21.4722L24.5854 20.6185C23.2713 19.8169 21.8757 19.3648 20.4086 19.2841L20.3537 20.2826ZM24.0646 21.4722L23.5539 22.3319C24.5911 22.9481 25.4506 23.826 26.1299 24.9935L26.9943 24.4907L27.8586 23.9878C27.0228 22.5512 25.9293 21.4168 24.5753 20.6125L24.0646 21.4722ZM26.9943 24.4907L26.1299 24.9935C26.7806 26.1119 27.1307 27.5041 27.1307 29.2137H28.1307H29.1307C29.1307 27.2301 28.7231 25.4735 27.8586 23.9878L26.9943 24.4907ZM28.1307 29.2137H27.1307C27.1307 30.9264 26.7183 32.4374 25.9084 33.7733L26.7635 34.2918L27.6186 34.8102C28.6315 33.1395 29.1307 31.2652 29.1307 29.2137H28.1307ZM26.7635 34.2918L25.9102 33.7703C25.1162 35.0697 23.9051 36.126 22.2181 36.9205L22.6442 37.8252L23.0702 38.7299C25.0528 37.7962 26.5879 36.4969 27.6168 34.8132L26.7635 34.2918ZM22.6442 37.8252L22.2181 36.9205C20.5565 37.703 18.4055 38.1213 15.7194 38.1213V39.1213V40.1213C18.5969 40.1213 21.0623 39.6755 23.0702 38.7299L22.6442 37.8252ZM15.7194 39.1213V38.1213H0.999978V39.1213V40.1213H15.7194V39.1213ZM7.58734 33.6171V34.6171H14.6719V33.6171V32.6171H7.58734V33.6171ZM14.6719 33.6171V34.6171C17.1458 34.6171 19.1664 34.1539 20.493 33.0061L19.8388 32.2499L19.1845 31.4936C18.4041 32.1688 16.9801 32.6171 14.6719 32.6171V33.6171ZM19.8388 32.2499L20.4937 33.0056C21.7842 31.8871 22.4368 30.4248 22.4368 28.6988H21.4368H20.4368C20.4368 29.861 20.024 30.7661 19.1838 31.4942L19.8388 32.2499ZM21.4368 28.6988H22.4368C22.4368 27.4481 22.125 26.2937 21.489 25.2621L20.6378 25.7868L19.7865 26.3116C20.2159 27.0082 20.4368 27.7951 20.4368 28.6988H21.4368ZM20.6378 25.7868L21.4922 25.2672C20.8554 24.2201 19.9526 23.4098 18.8165 22.8349L18.365 23.7272L17.9135 24.6194C18.7424 25.0389 19.3548 25.6017 19.7833 26.3064L20.6378 25.7868ZM18.365 23.7272L18.825 22.8392C17.6713 22.2415 16.3345 21.9637 14.8494 21.9637V22.9637V23.9637C16.0869 23.9637 17.0938 24.1948 17.905 24.6151L18.365 23.7272ZM14.8494 22.9637V21.9637H7.58734V22.9637V23.9637H14.8494V22.9637ZM7.58734 22.9637H6.58734V33.6171H7.58734H8.58734V22.9637H7.58734ZM7.58734 18.2229V19.2229H14.1037V18.2229V17.2229H7.58734V18.2229ZM14.1037 18.2229V19.2229C15.3635 19.2229 16.5313 18.9927 17.5892 18.5118L17.1754 17.6014L16.7616 16.6911C15.9966 17.0388 15.1166 17.2229 14.1037 17.2229V18.2229ZM17.1754 17.6014L17.5989 18.5073C18.6599 18.0113 19.5216 17.3 20.152 16.3687L19.3238 15.8081L18.4957 15.2476C18.0845 15.8551 17.5138 16.3393 16.7519 16.6956L17.1754 17.6014ZM19.3238 15.8081L20.1501 16.3715C20.81 15.4036 21.1228 14.2782 21.1228 13.0382H20.1228H19.1228C19.1228 13.929 18.9031 14.6501 18.4976 15.2448L19.3238 15.8081ZM20.1228 13.0382H21.1228C21.1228 11.3634 20.5182 9.93112 19.3071 8.82097L18.6314 9.55813L17.9556 10.2953C18.7332 11.008 19.1228 11.8959 19.1228 13.0382H20.1228ZM18.6314 9.55813L19.3115 8.82502C18.0757 7.67854 16.3272 7.19094 14.2457 7.19094V8.19094V9.19094C16.0469 9.19094 17.2221 9.61479 17.9513 10.2912L18.6314 9.55813ZM14.2457 8.19094V7.19094H7.58734V8.19094V9.19094H14.2457V8.19094ZM7.58734 8.19094H6.58734V18.2229H7.58734H8.58734V8.19094H7.58734ZM33.5772 39.1213H32.5772V40.1213H33.5772V39.1213ZM33.5772 11.8486V10.8486H32.5772V11.8486H33.5772ZM40.0048 11.8486H41.0048V10.8486H40.0048V11.8486ZM40.0048 39.1213V40.1213H41.0048V39.1213H40.0048ZM34.1809 6.9658L33.4977 7.6961L33.5041 7.70196L34.1809 6.9658ZM34.1809 2.02972L34.8577 2.76591L34.8641 2.75999L34.1809 2.02972ZM39.4366 2.02972L38.7475 2.75442L38.7536 2.7602L38.7598 2.76588L39.4366 2.02972ZM39.4366 6.9658L40.1193 7.69645L40.1197 7.69607L39.4366 6.9658ZM33.5772 39.1213H34.5772V11.8486H33.5772H32.5772V39.1213H33.5772ZM33.5772 11.8486V12.8486H40.0048V11.8486V10.8486H33.5772V11.8486ZM40.0048 11.8486H39.0048V39.1213H40.0048H41.0048V11.8486H40.0048ZM40.0048 39.1213V38.1213H33.5772V39.1213V40.1213H40.0048V39.1213ZM36.8088 7.97787V6.97787C36.0356 6.97787 35.4028 6.73075 34.8577 6.22963L34.1809 6.9658L33.5041 7.70196C34.4268 8.55028 35.5459 8.97787 36.8088 8.97787V7.97787ZM34.1809 6.9658L34.8641 6.23553C34.3213 5.72781 34.0801 5.16513 34.0801 4.49776H33.0801H32.0801C32.0801 5.74799 32.5727 6.83067 33.4977 7.69607L34.1809 6.9658ZM33.0801 4.49776H34.0801C34.0801 3.81539 34.3235 3.25705 34.8577 2.76588L34.1809 2.02972L33.5041 1.29355C32.5706 2.15182 32.0801 3.23883 32.0801 4.49776H33.0801ZM34.1809 2.02972L34.8641 2.75999C35.4101 2.24923 36.0408 1.99989 36.8088 1.99989V0.999888V-0.000112057C35.5407 -0.000112057 34.4196 0.437102 33.4978 1.29944L34.1809 2.02972ZM36.8088 0.999888V1.99989C37.5916 1.99989 38.2182 2.25108 38.7475 2.75442L39.4366 2.02972L40.1257 1.30501C39.2109 0.435246 38.0855 -0.000112057 36.8088 -0.000112057V0.999888ZM39.4366 2.02972L38.7598 2.76588C39.294 3.25705 39.5374 3.81539 39.5374 4.49776H40.5374H41.5374C41.5374 3.23883 41.0469 2.15182 40.1134 1.29355L39.4366 2.02972ZM40.5374 4.49776H39.5374C39.5374 5.16513 39.2962 5.72781 38.7534 6.23553L39.4366 6.9658L40.1197 7.69607C41.0448 6.83067 41.5374 5.74799 41.5374 4.49776H40.5374ZM39.4366 6.9658L38.7538 6.23514C38.2254 6.72891 37.5969 6.97787 36.8088 6.97787V7.97787V8.97787C38.0803 8.97787 39.2036 8.55212 40.1193 7.69645L39.4366 6.9658ZM51.4971 37.8607L50.9727 38.7122L50.9751 38.7136L51.4971 37.8607ZM47.005 32.9068L46.1075 33.348L46.1105 33.3541L47.005 32.9068ZM47.0405 18.2584L47.9339 18.7076L47.9349 18.7056L47.0405 18.2584ZM51.5504 13.2868L52.071 14.1406L52.0725 14.1397L51.5504 13.2868ZM64.3522 12.7186L63.9201 13.6205L63.9277 13.624L64.3522 12.7186ZM68.4538 16.1455L67.63 16.7123L67.6321 16.7154L68.4538 16.1455ZM70.1939 21.2946V22.2946H71.2688L71.1913 21.2225L70.1939 21.2946ZM64.0504 21.2946L63.0678 21.4805L63.2219 22.2946H64.0504V21.2946ZM62.2748 18.0098L61.5817 18.7307L61.5912 18.7397L62.2748 18.0098ZM55.1015 17.7435L55.6763 18.5618L55.6828 18.5572L55.1015 17.7435ZM52.7755 20.762L51.8547 20.372L51.8517 20.3791L52.7755 20.762ZM52.7755 30.279L51.8493 30.656L51.8505 30.6589L52.7755 30.279ZM55.066 33.3507L54.4738 34.1566L54.4848 34.1645L55.066 33.3507ZM61.103 33.8834L61.5329 34.7863L61.5389 34.7834L61.103 33.8834ZM63.0028 32.3032L62.1995 31.7076V31.7076L63.0028 32.3032ZM64.0504 29.7996V28.7996H63.2248L63.0685 29.6103L64.0504 29.7996ZM70.1939 29.7996L71.1907 29.8791L71.2768 28.7996H70.1939V29.7996ZM68.4893 34.931L69.3224 35.4842L69.3244 35.4811L68.4893 34.931ZM64.4765 38.4111L64.9162 39.3093L64.9212 39.3068L64.4765 38.4111ZM58.5106 39.654V38.654C55.9372 38.654 53.7877 38.0903 52.0192 37.0078L51.4971 37.8607L50.9751 38.7136C53.1128 40.0221 55.639 40.654 58.5106 40.654V39.654ZM51.4971 37.8607L52.0215 37.0092C50.2443 35.9147 48.8725 34.4059 47.8994 32.4596L47.005 32.9068L46.1105 33.3541C47.2444 35.6218 48.8674 37.4156 50.9728 38.7122L51.4971 37.8607ZM47.005 32.9068L47.9024 32.4657C46.9387 30.5054 46.4424 28.2222 46.4424 25.5915H45.4424H44.4424C44.4424 28.4769 44.9879 31.0706 46.1075 33.348L47.005 32.9068ZM45.4424 25.5915H46.4424C46.4424 22.9515 46.9495 20.6655 47.9339 18.7076L47.0405 18.2584L46.147 17.8092C45.0007 20.089 44.4424 22.6918 44.4424 25.5915H45.4424ZM47.0405 18.2584L47.9349 18.7056C48.9205 16.7345 50.2979 15.2218 52.071 14.1406L51.5504 13.2868L51.0298 12.433C48.9204 13.7193 47.2911 15.521 46.146 17.8112L47.0405 18.2584ZM51.5504 13.2868L52.0725 14.1397C53.8443 13.0551 55.9655 12.4935 58.4751 12.4935V11.4935V10.4935C55.658 10.4935 53.1627 11.1274 51.0283 12.4339L51.5504 13.2868ZM58.4751 11.4935V12.4935C60.5645 12.4935 62.3717 12.8785 63.9201 13.6205L64.3522 12.7186L64.7844 11.8168C62.9237 10.9253 60.8128 10.4935 58.4751 10.4935V11.4935ZM64.3522 12.7186L63.9277 13.624C65.4925 14.3579 66.7183 15.3872 67.63 16.7123L68.4538 16.1455L69.2777 15.5787C68.1534 13.9445 66.6447 12.6892 64.7768 11.8133L64.3522 12.7186ZM68.4538 16.1455L67.6321 16.7154C68.5377 18.0211 69.066 19.5615 69.1965 21.3667L70.1939 21.2946L71.1913 21.2225C71.0377 19.0978 70.4059 17.2054 69.2755 15.5756L68.4538 16.1455ZM70.1939 21.2946V20.2946H64.0504V21.2946V22.2946H70.1939V21.2946ZM64.0504 21.2946L65.033 21.1087C64.7468 19.5961 64.0555 18.3076 62.9585 17.28L62.2748 18.0098L61.5912 18.7397C62.3645 19.464 62.8568 20.3653 63.0678 21.4805L64.0504 21.2946ZM62.2748 18.0098L62.9679 17.289C61.8205 16.1857 60.3152 15.6782 58.5639 15.6782V16.6782V17.6782C59.9139 17.6782 60.8826 18.0584 61.5817 18.7307L62.2748 18.0098ZM58.5639 16.6782V15.6782C57.0581 15.6782 55.6972 16.0891 54.5203 16.9298L55.1015 17.7435L55.6828 18.5572C56.4945 17.9774 57.4418 17.6782 58.5639 17.6782V16.6782ZM55.1015 17.7435L54.5268 16.9252C53.3543 17.7487 52.4711 18.9162 51.8547 20.3721L52.7755 20.762L53.6964 21.1519C54.1927 19.9798 54.8602 19.135 55.6763 18.5618L55.1015 17.7435ZM52.7755 20.762L51.8517 20.3791C51.2446 21.844 50.9588 23.5553 50.9588 25.485H51.9588H52.9588C52.9588 23.7452 53.2174 22.3077 53.6994 21.1448L52.7755 20.762ZM51.9588 25.485H50.9588C50.9588 27.4372 51.2443 29.1698 51.8493 30.656L52.7755 30.279L53.7017 29.902C53.2178 28.7131 52.9588 27.2496 52.9588 25.485H51.9588ZM52.7755 30.279L51.8505 30.6589C52.4524 32.1243 53.3192 33.3079 54.4738 34.1565L55.066 33.3507L55.6582 32.545C54.8479 31.9494 54.1877 31.0852 53.7006 29.8991L52.7755 30.279ZM55.066 33.3507L54.4848 34.1645C55.6648 35.0074 57.0386 35.4161 58.5639 35.4161V34.4161V33.4161C57.414 33.4161 56.4559 33.1146 55.6473 32.537L55.066 33.3507ZM58.5639 34.4161V35.4161C59.6378 35.4161 60.6345 35.2141 61.5329 34.7863L61.103 33.8834L60.673 32.9806C60.08 33.263 59.3839 33.4161 58.5639 33.4161V34.4161ZM61.103 33.8834L61.5389 34.7834C62.444 34.345 63.2026 33.7128 63.8061 32.8987L63.0028 32.3032L62.1995 31.7076C61.7851 32.2666 61.2771 32.6879 60.667 32.9834L61.103 33.8834ZM63.0028 32.3032L63.8061 32.8987C64.4183 32.0729 64.8194 31.0935 65.0323 29.9889L64.0504 29.7996L63.0685 29.6103C62.9026 30.4707 62.6053 31.1603 62.1995 31.7076L63.0028 32.3032ZM64.0504 29.7996V30.7996H70.1939V29.7996V28.7996H64.0504V29.7996ZM70.1939 29.7996L69.197 29.7201C69.0554 31.496 68.5363 33.0418 67.6542 34.3809L68.4893 34.931L69.3244 35.4811C70.4073 33.8373 71.0246 31.9621 71.1907 29.8791L70.1939 29.7996ZM68.4893 34.931L67.6562 34.3778C66.7772 35.7018 65.5777 36.7479 64.0318 37.5154L64.4765 38.4111L64.9212 39.3068C66.7608 38.3934 68.2365 37.1195 69.3224 35.4842L68.4893 34.931ZM64.4765 38.4111L64.0369 37.5129C62.507 38.2618 60.6747 38.654 58.5106 38.654V39.654V40.654C60.9157 40.654 63.0606 40.2176 64.9162 39.3093L64.4765 38.4111ZM80.3546 37.8607L79.8302 38.7122L79.8325 38.7136L80.3546 37.8607ZM75.8624 32.9068L74.9649 33.348L74.9679 33.3541L75.8624 32.9068ZM75.8979 18.2584L76.7913 18.7076L76.7923 18.7056L75.8979 18.2584ZM80.4078 13.2868L80.9284 14.1406L80.9299 14.1397L80.4078 13.2868ZM93.2097 12.7186L92.7775 13.6205L92.7851 13.624L93.2097 12.7186ZM97.3112 16.1455L96.4874 16.7123L96.4895 16.7154L97.3112 16.1455ZM99.0513 21.2946V22.2946H100.126L100.049 21.2225L99.0513 21.2946ZM92.9078 21.2946L91.9253 21.4805L92.0793 22.2946H92.9078V21.2946ZM91.1323 18.0098L90.4391 18.7307L90.4486 18.7397L91.1323 18.0098ZM83.959 17.7435L84.5338 18.5618L84.5402 18.5572L83.959 17.7435ZM81.633 20.762L80.7121 20.372L80.7092 20.3791L81.633 20.762ZM81.633 30.279L80.7068 30.656L80.7079 30.6589L81.633 30.279ZM83.9235 33.3507L83.3312 34.1566L83.3422 34.1645L83.9235 33.3507ZM89.9604 33.8834L90.3903 34.7863L90.3963 34.7834L89.9604 33.8834ZM91.8602 32.3032L91.0569 31.7076V31.7076L91.8602 32.3032ZM92.9078 29.7996V28.7996H92.0822L91.9259 29.6103L92.9078 29.7996ZM99.0513 29.7996L100.048 29.8791L100.134 28.7996H99.0513V29.7996ZM97.3467 34.931L98.1798 35.4842L98.1818 35.4811L97.3467 34.931ZM93.334 38.4111L93.7736 39.3093L93.7787 39.3068L93.334 38.4111ZM87.3681 39.654V38.654C84.7946 38.654 82.6451 38.0903 80.8766 37.0078L80.3546 37.8607L79.8325 38.7136C81.9702 40.0221 84.4964 40.654 87.3681 40.654V39.654ZM80.3546 37.8607L80.8789 37.0092C79.1017 35.9147 77.7299 34.4059 76.7568 32.4596L75.8624 32.9068L74.9679 33.3541C76.1018 35.6218 77.7248 37.4156 79.8302 38.7122L80.3546 37.8607ZM75.8624 32.9068L76.7598 32.4657C75.7961 30.5054 75.2999 28.2222 75.2999 25.5915H74.2999H73.2999C73.2999 28.4769 73.8453 31.0706 74.965 33.348L75.8624 32.9068ZM74.2999 25.5915H75.2999C75.2999 22.9515 75.8069 20.6655 76.7913 18.7076L75.8979 18.2584L75.0045 17.8092C73.8582 20.089 73.2999 22.6918 73.2999 25.5915H74.2999ZM75.8979 18.2584L76.7923 18.7056C77.7779 16.7345 79.1553 15.2218 80.9284 14.1406L80.4078 13.2868L79.8872 12.433C77.7778 13.7193 76.1486 15.521 75.0035 17.8112L75.8979 18.2584ZM80.4078 13.2868L80.9299 14.1397C82.7017 13.0551 84.8229 12.4935 87.3325 12.4935V11.4935V10.4935C84.5155 10.4935 82.0202 11.1274 79.8857 12.4339L80.4078 13.2868ZM87.3325 11.4935V12.4935C89.422 12.4935 91.2291 12.8785 92.7776 13.6205L93.2097 12.7186L93.6418 11.8168C91.7812 10.9253 89.6702 10.4935 87.3325 10.4935V11.4935ZM93.2097 12.7186L92.7851 13.624C94.35 14.3579 95.5757 15.3872 96.4874 16.7123L97.3112 16.1455L98.1351 15.5787C97.0108 13.9445 95.5022 12.6892 93.6343 11.8133L93.2097 12.7186ZM97.3112 16.1455L96.4895 16.7154C97.3951 18.0211 97.9234 19.5615 98.0539 21.3667L99.0513 21.2946L100.049 21.2225C99.8951 19.0978 99.2633 17.2054 98.1329 15.5756L97.3112 16.1455ZM99.0513 21.2946V20.2946H92.9078V21.2946V22.2946H99.0513V21.2946ZM92.9078 21.2946L93.8904 21.1087C93.6042 19.5961 92.9129 18.3076 91.8159 17.28L91.1323 18.0098L90.4486 18.7397C91.2219 19.464 91.7143 20.3653 91.9253 21.4805L92.9078 21.2946ZM91.1323 18.0098L91.8254 17.289C90.6779 16.1857 89.1727 15.6782 87.4213 15.6782V16.6782V17.6782C88.7713 17.6782 89.74 18.0584 90.4391 18.7307L91.1323 18.0098ZM87.4213 16.6782V15.6782C85.9156 15.6782 84.5546 16.0891 83.3777 16.9298L83.959 17.7435L84.5402 18.5572C85.3519 17.9774 86.2992 17.6782 87.4213 17.6782V16.6782ZM83.959 17.7435L83.3842 16.9252C82.2117 17.7487 81.3285 18.9162 80.7121 20.3721L81.633 20.762L82.5538 21.1519C83.0501 19.9798 83.7176 19.135 84.5337 18.5618L83.959 17.7435ZM81.633 20.762L80.7092 20.3791C80.1021 21.844 79.8162 23.5553 79.8162 25.485H80.8162H81.8162C81.8162 23.7452 82.0749 22.3077 82.5568 21.1448L81.633 20.762ZM80.8162 25.485H79.8162C79.8162 27.4372 80.1017 29.1698 80.7068 30.656L81.633 30.279L82.5592 29.902C82.0752 28.7131 81.8162 27.2496 81.8162 25.485H80.8162ZM81.633 30.279L80.7079 30.6589C81.3098 32.1243 82.1766 33.3079 83.3312 34.1565L83.9235 33.3507L84.5157 32.545C83.7053 31.9494 83.0451 31.0852 82.558 29.8991L81.633 30.279ZM83.9235 33.3507L83.3422 34.1645C84.5223 35.0074 85.896 35.4161 87.4213 35.4161V34.4161V33.4161C86.2714 33.4161 85.3133 33.1146 84.5047 32.537L83.9235 33.3507ZM87.4213 34.4161V35.4161C88.4952 35.4161 89.4919 35.2141 90.3903 34.7863L89.9604 33.8834L89.5304 32.9806C88.9374 33.263 88.2413 33.4161 87.4213 33.4161V34.4161ZM89.9604 33.8834L90.3963 34.7834C91.3014 34.345 92.06 33.7128 92.6636 32.8987L91.8602 32.3032L91.0569 31.7076C90.6425 32.2666 90.1345 32.6879 89.5245 32.9834L89.9604 33.8834ZM91.8602 32.3032L92.6636 32.8987C93.2758 32.0729 93.6768 31.0935 93.8897 29.9889L92.9078 29.7996L91.9259 29.6103C91.7601 30.4707 91.4627 31.1603 91.0569 31.7076L91.8602 32.3032ZM92.9078 29.7996V30.7996H99.0513V29.7996V28.7996H92.9078V29.7996ZM99.0513 29.7996L98.0545 29.7201C97.9128 31.496 97.3938 33.0418 96.5117 34.3809L97.3467 34.931L98.1818 35.4811C99.2647 33.8373 99.882 31.9621 100.048 29.8791L99.0513 29.7996ZM97.3467 34.931L96.5137 34.3778C95.6346 35.7018 94.4351 36.7479 92.8893 37.5154L93.334 38.4111L93.7787 39.3068C95.6182 38.3934 97.0939 37.1195 98.1798 35.4842L97.3467 34.931ZM93.334 38.4111L92.8943 37.5129C91.3645 38.2618 89.5321 38.654 87.3681 38.654V39.654V40.654C89.7732 40.654 91.918 40.2176 93.7736 39.3093L93.334 38.4111ZM107.507 38.7485L107.092 39.6581L107.101 39.6623L107.507 38.7485ZM104.24 35.9786L103.402 36.5239L103.406 36.5295L104.24 35.9786ZM103.903 27.6512L103.032 27.1594V27.1594L103.903 27.6512ZM106.229 25.2364L105.706 24.3844H105.705L106.229 25.2364ZM109.549 23.8692L109.792 24.8394L109.798 24.8377L109.549 23.8692ZM113.402 23.1767L113.299 22.1821L113.296 22.1824L113.402 23.1767ZM117.291 22.7328L117.421 23.7244L117.432 23.7228L117.291 22.7328ZM119.457 22.0936L119.991 22.9391L119.997 22.9355L119.457 22.0936ZM118.96 17.5127L119.639 16.7787V16.7787L118.96 17.5127ZM111.787 17.4417L111.19 16.6392L111.185 16.6429L111.787 17.4417ZM109.94 19.8742L109.799 20.8642L110.619 20.9806L110.886 20.1976L109.94 19.8742ZM103.939 19.0219L102.977 18.7472L102.662 19.8506L103.798 20.012L103.939 19.0219ZM106.282 14.8671L106.997 15.5665L107.001 15.5627L106.282 14.8671ZM110.277 12.3458L110.611 13.2886L110.617 13.2864L110.277 12.3458ZM122.99 13.4821L122.44 14.317L122.446 14.3212L122.99 13.4821ZM125.583 16.3408L124.702 16.8154L124.706 16.8221L125.583 16.3408ZM126.577 39.1213V40.1213H127.577V39.1213H126.577ZM120.398 39.1213H119.398V40.1213H120.398V39.1213ZM120.398 35.3749H121.398V34.3749H120.398V35.3749ZM120.185 35.3749V34.3749H119.576L119.296 34.9166L120.185 35.3749ZM118.534 37.5056L119.216 38.237L119.216 38.2366L118.534 37.5056ZM115.888 39.0858L116.236 40.0235L116.242 40.0213L115.888 39.0858ZM117.202 34.1853L117.676 35.0661L117.684 35.0615L117.202 34.1853ZM119.386 32.1256L118.533 31.6041L118.527 31.6129L119.386 32.1256ZM120.167 26.1242H121.167V24.0052L119.532 25.3522L120.167 26.1242ZM119.137 26.5858L118.857 25.6261L118.85 25.628L119.137 26.5858ZM117.539 26.9587L117.717 27.9429H117.717L117.539 26.9587ZM114.272 27.4559L114.407 28.4468L114.41 28.4463L114.272 27.4559ZM111.698 28.0951L111.334 27.1636V27.1636L111.698 28.0951ZM109.904 29.338L110.67 29.9816L110.677 29.9731L109.904 29.338ZM110.544 34.0432L109.971 34.863V34.863L110.544 34.0432ZM112.177 39.6718V38.6718C110.569 38.6718 109.154 38.3859 107.914 37.8347L107.507 38.7485L107.101 39.6623C108.631 40.3421 110.329 40.6718 112.177 40.6718V39.6718ZM107.507 38.7485L107.923 37.8389C106.714 37.2867 105.773 36.485 105.075 35.4276L104.24 35.9786L103.406 36.5295C104.318 37.9106 105.554 38.9555 107.092 39.658L107.507 38.7485ZM104.24 35.9786L105.079 35.4333C104.413 34.41 104.051 33.107 104.051 31.4686H103.051H102.051C102.051 33.4051 102.482 35.1087 103.402 36.5239L104.24 35.9786ZM103.051 31.4686H104.051C104.051 30.0469 104.314 28.9573 104.774 28.1429L103.903 27.6512L103.032 27.1594C102.356 28.3573 102.051 29.8127 102.051 31.4686H103.051ZM103.903 27.6512L104.774 28.1429C105.259 27.284 105.915 26.6032 106.753 26.0884L106.229 25.2364L105.705 24.3844C104.578 25.077 103.684 26.006 103.032 27.1594L103.903 27.6512ZM106.229 25.2364L106.753 26.0884C107.64 25.5433 108.65 25.1248 109.792 24.8393L109.549 23.8692L109.307 22.8991C107.986 23.2291 106.783 23.7221 105.706 24.3844L106.229 25.2364ZM109.549 23.8692L109.798 24.8377C110.993 24.5306 112.229 24.3081 113.509 24.171L113.402 23.1767L113.296 22.1824C111.924 22.3294 110.592 22.5686 109.3 22.9007L109.549 23.8692ZM113.402 23.1767L113.505 24.1714C115.108 24.0052 116.414 23.8562 117.421 23.7244L117.291 22.7328L117.161 21.7413C116.179 21.8699 114.893 22.0168 113.299 22.1821L113.402 23.1767ZM117.291 22.7328L117.432 23.7228C118.464 23.5754 119.358 23.3389 119.991 22.9391L119.457 22.0936L118.923 21.2481C118.656 21.4165 118.106 21.6062 117.149 21.7429L117.291 22.7328ZM119.457 22.0936L119.997 22.9355C120.784 22.4306 121.149 21.6334 121.149 20.7264H120.149H119.149C119.149 21.0506 119.053 21.1648 118.917 21.2518L119.457 22.0936ZM120.149 20.7264H121.149V20.6199H120.149H119.149V20.7264H120.149ZM120.149 20.6199H121.149C121.149 19.0748 120.684 17.7453 119.639 16.7787L118.96 17.5127L118.281 18.2466C118.822 18.7478 119.149 19.4899 119.149 20.6199H120.149ZM118.96 17.5127L119.639 16.7787C118.601 15.8179 117.18 15.4118 115.533 15.4118V16.4118V17.4118C116.869 17.4118 117.733 17.7397 118.281 18.2466L118.96 17.5127ZM115.533 16.4118V15.4118C113.822 15.4118 112.339 15.7846 111.19 16.6392L111.787 17.4417L112.383 18.2441C113.081 17.7256 114.096 17.4118 115.533 17.4118V16.4118ZM111.787 17.4417L111.185 16.6429C110.139 17.4307 109.388 18.3982 108.994 19.5508L109.94 19.8742L110.886 20.1976C111.132 19.4799 111.611 18.8257 112.388 18.2404L111.787 17.4417ZM109.94 19.8742L110.081 18.8841L104.079 18.0318L103.939 19.0219L103.798 20.012L109.799 20.8642L109.94 19.8742ZM103.939 19.0219L104.9 19.2966C105.333 17.7819 106.036 16.548 106.997 15.5665L106.282 14.8671L105.568 14.1676C104.35 15.4115 103.491 16.9475 102.977 18.7472L103.939 19.0219ZM106.282 14.8671L107.001 15.5627C107.975 14.5566 109.172 13.797 110.611 13.2886L110.277 12.3458L109.944 11.4029C108.234 12.0073 106.768 12.9285 105.564 14.1714L106.282 14.8671ZM110.277 12.3458L110.617 13.2864C112.068 12.7625 113.692 12.4935 115.497 12.4935V11.4935V10.4935C113.492 10.4935 111.635 10.7926 109.938 11.4052L110.277 12.3458ZM115.497 11.4935V12.4935C116.733 12.4935 117.963 12.6381 119.191 12.9283L119.422 11.9551L119.652 10.982C118.275 10.6567 116.89 10.4935 115.497 10.4935V11.4935ZM119.422 11.9551L119.191 12.9283C120.384 13.2101 121.464 13.6737 122.44 14.317L122.99 13.4821L123.541 12.6473C122.362 11.8701 121.063 11.3157 119.652 10.982L119.422 11.9551ZM122.99 13.4821L122.446 14.3212C123.373 14.922 124.126 15.7454 124.703 16.8154L125.583 16.3408L126.463 15.8662C125.738 14.5215 124.762 13.439 123.534 12.6431L122.99 13.4821ZM125.583 16.3408L124.706 16.8221C125.267 17.8428 125.577 19.1744 125.577 20.8685H126.577H127.577C127.577 18.9404 127.225 17.2536 126.459 15.8595L125.583 16.3408ZM126.577 20.8685H125.577V39.1213H126.577H127.577V20.8685H126.577ZM126.577 39.1213V38.1213H120.398V39.1213V40.1213H126.577V39.1213ZM120.398 39.1213H121.398V35.3749H120.398H119.398V39.1213H120.398ZM120.398 35.3749V34.3749H120.185V35.3749V36.3749H120.398V35.3749ZM120.185 35.3749L119.296 34.9166C118.965 35.5589 118.489 36.1792 117.851 36.7745L118.534 37.5056L119.216 38.2366C119.999 37.5062 120.624 36.7061 121.074 35.8332L120.185 35.3749ZM118.534 37.5056L117.852 36.7741C117.265 37.3211 116.501 37.7852 115.535 38.1504L115.888 39.0858L116.242 40.0213C117.406 39.5815 118.406 38.9921 119.216 38.237L118.534 37.5056ZM115.888 39.0858L115.54 38.1482C114.623 38.4883 113.509 38.6718 112.177 38.6718V39.6718V40.6718C113.686 40.6718 115.046 40.4646 116.236 40.0234L115.888 39.0858ZM113.846 34.9488V35.9488C115.269 35.9488 116.557 35.6675 117.675 35.0661L117.202 34.1853L116.729 33.3044C115.954 33.721 115.004 33.9488 113.846 33.9488V34.9488ZM117.202 34.1853L117.684 35.0615C118.772 34.4629 119.637 33.6564 120.245 32.6383L119.386 32.1256L118.527 31.6129C118.117 32.2993 117.526 32.866 116.72 33.309L117.202 34.1853ZM119.386 32.1256L120.239 32.647C120.857 31.6366 121.167 30.5267 121.167 29.338H120.167H119.167C119.167 30.1615 118.957 30.9101 118.533 31.6041L119.386 32.1256ZM120.167 29.338H121.167V26.1242H120.167H119.167V29.338H120.167ZM120.167 26.1242L119.532 25.3522C119.492 25.3845 119.311 25.493 118.857 25.6261L119.137 26.5858L119.418 27.5456C119.934 27.3945 120.44 27.1953 120.803 26.8961L120.167 26.1242ZM119.137 26.5858L118.85 25.628C118.42 25.7572 117.925 25.8733 117.362 25.9745L117.539 26.9587L117.717 27.9429C118.338 27.831 118.908 27.6986 119.425 27.5437L119.137 26.5858ZM117.539 26.9587L117.362 25.9745C116.782 26.079 116.208 26.1717 115.64 26.2528L115.782 27.2428L115.923 28.2327C116.515 28.1481 117.113 28.0515 117.717 27.9429L117.539 26.9587ZM115.782 27.2428L115.64 26.2528C115.061 26.3356 114.559 26.4064 114.135 26.4654L114.272 27.4559L114.41 28.4463C114.838 28.3869 115.342 28.3157 115.923 28.2327L115.782 27.2428ZM114.272 27.4559L114.138 26.465C113.115 26.6039 112.178 26.834 111.334 27.1636L111.698 28.0951L112.062 29.0265C112.733 28.7642 113.512 28.5683 114.407 28.4468L114.272 27.4559ZM111.698 28.0951L111.334 27.1636C110.446 27.5105 109.697 28.0162 109.132 28.7029L109.904 29.338L110.677 29.9731C110.988 29.5944 111.435 29.2714 112.062 29.0265L111.698 28.0951ZM109.904 29.338L109.139 28.6944C108.519 29.4323 108.247 30.3513 108.247 31.3621H109.247H110.247C110.247 30.7157 110.414 30.2852 110.67 29.9816L109.904 29.338ZM109.247 31.3621H108.247C108.247 32.8258 108.803 34.047 109.971 34.863L110.544 34.0432L111.116 33.2235C110.556 32.8321 110.247 32.2659 110.247 31.3621H109.247ZM110.544 34.0432L109.971 34.863C111.043 35.6121 112.359 35.9488 113.846 35.9488V34.9488V33.9488C112.658 33.9488 111.772 33.6817 111.116 33.2235L110.544 34.0432ZM154.596 19.0574L154.704 20.0515L155.779 19.9343L155.578 18.8719L154.596 19.0574ZM148.736 19.6966L147.773 19.9663L148.002 20.7827L148.845 20.6907L148.736 19.6966ZM147.866 18.0276L147.075 18.6391L147.083 18.6501L147.866 18.0276ZM146.233 16.7669L146.655 15.8604V15.8604L146.233 16.7669ZM140.338 17.1576L139.801 16.3139L139.796 16.3171L140.338 17.1576ZM139.006 19.4125L140.006 19.4275L140.006 19.4136L140.006 19.3997L139.006 19.4125ZM139.876 21.3479L139.233 22.1136L139.24 22.1198L139.876 21.3479ZM142.859 22.573L142.634 23.5474L142.642 23.5493L142.65 23.551L142.859 22.573ZM147.511 23.5674L147.722 22.5898L147.72 22.5894L147.511 23.5674ZM153.264 26.213L152.57 26.9335L152.574 26.9368L153.264 26.213ZM155.181 30.9537L156.182 30.9606L156.181 30.9477L155.181 30.9537ZM153.672 35.4992L152.875 34.8957L152.874 34.8969L153.672 35.4992ZM149.571 38.5532L149.957 39.4755L149.571 38.5532ZM135.473 37.5588L134.904 38.3812L134.907 38.3834L135.473 37.5588ZM131.833 31.6817L131.737 30.6863L130.682 30.788L130.845 31.8355L131.833 31.6817ZM138.1 31.078L139.075 30.8532L138.878 29.9985L138.005 30.0826L138.1 31.078ZM139.912 33.8657L140.474 33.0385V33.0385L139.912 33.8657ZM147.191 33.8657L146.634 33.0352L146.629 33.0385L147.191 33.8657ZM147.689 29.6043L147.036 30.3625L147.044 30.3688L147.689 29.6043ZM144.919 28.4324L145.131 27.4551L145.124 27.4537L144.919 28.4324ZM140.267 27.4559L140.472 26.4772L140.47 26.4768L140.267 27.4559ZM134.461 24.7037L133.74 25.3976L133.744 25.4009L134.461 24.7037ZM132.596 19.7676L133.596 19.7736L133.596 19.7606L132.596 19.7676ZM133.963 15.3997L133.164 14.7985L133.163 14.7997L133.963 15.3997ZM137.852 12.5233L138.229 13.4495L138.232 13.4481L137.852 12.5233ZM151.169 13.5354L150.573 14.3385L150.575 14.3403L151.169 13.5354ZM154.596 19.0574L154.487 18.0633L148.628 18.7025L148.736 19.6966L148.845 20.6907L154.704 20.0515L154.596 19.0574ZM148.736 19.6966L149.699 19.427C149.495 18.6963 149.139 18.0216 148.649 17.4051L147.866 18.0276L147.083 18.6501C147.422 19.0753 147.646 19.5132 147.773 19.9663L148.736 19.6966ZM147.866 18.0276L148.657 17.4161C148.143 16.751 147.464 16.2372 146.655 15.8604L146.233 16.7669L145.811 17.6735C146.374 17.9359 146.784 18.2625 147.075 18.639L147.866 18.0276ZM146.233 16.7669L146.655 15.8604C145.801 15.4631 144.808 15.2875 143.711 15.2875V16.2875V17.2875C144.603 17.2875 145.291 17.4315 145.811 17.6735L146.233 16.7669ZM143.711 16.2875V15.2875C142.229 15.2875 140.907 15.6099 139.801 16.3139L140.338 17.1576L140.875 18.0012C141.591 17.5452 142.519 17.2875 143.711 17.2875V16.2875ZM140.338 17.1576L139.796 16.3171C138.661 17.0488 137.989 18.0979 138.006 19.4254L139.006 19.4125L140.006 19.3997C139.999 18.8806 140.215 18.4264 140.88 17.998L140.338 17.1576ZM139.006 19.4125L138.006 19.3976C137.99 20.4822 138.404 21.4173 139.233 22.1136L139.876 21.3479L140.519 20.5822C140.164 20.2842 139.998 19.9291 140.006 19.4275L139.006 19.4125ZM139.876 21.3479L139.24 22.1198C140.025 22.7661 141.202 23.2171 142.634 23.5474L142.859 22.573L143.084 21.5987C141.746 21.2898 140.934 20.9241 140.512 20.576L139.876 21.3479ZM142.859 22.573L142.65 23.551L147.302 24.5453L147.511 23.5674L147.72 22.5894L143.068 21.5951L142.859 22.573ZM147.511 23.5674L147.3 24.5449C149.786 25.0808 151.502 25.9052 152.57 26.9335L153.264 26.213L153.957 25.4924C152.516 24.106 150.397 23.1666 147.722 22.5898L147.511 23.5674ZM153.264 26.213L152.574 26.9368C153.62 27.9342 154.171 29.2434 154.181 30.9598L155.181 30.9537L156.181 30.9477C156.168 28.7578 155.441 26.9065 153.954 25.4891L153.264 26.213ZM155.181 30.9537L154.181 30.9468C154.171 32.4573 153.733 33.7612 152.875 34.8957L153.672 35.4992L154.47 36.1026C155.6 34.6094 156.168 32.8829 156.181 30.9606L155.181 30.9537ZM153.672 35.4992L152.874 34.8969C152.014 36.0359 150.8 36.9539 149.184 37.6308L149.571 38.5532L149.957 39.4755C151.845 38.6846 153.365 37.5666 154.47 36.1015L153.672 35.4992ZM149.571 38.5532L149.184 37.6308C147.576 38.3044 145.699 38.654 143.534 38.654V39.654V40.654C145.914 40.654 148.061 40.2697 149.957 39.4755L149.571 38.5532ZM143.534 39.654V38.654C140.328 38.654 137.858 37.9829 136.038 36.7342L135.473 37.5588L134.907 38.3834C137.159 39.9283 140.063 40.654 143.534 40.654V39.654ZM135.473 37.5588L136.042 36.7365C134.238 35.4883 133.171 33.7744 132.821 31.5279L131.833 31.6817L130.845 31.8355C131.276 34.608 132.636 36.8121 134.904 38.3812L135.473 37.5588ZM131.833 31.6817L131.929 32.6771L138.196 32.0734L138.1 31.078L138.005 30.0826L131.737 30.6863L131.833 31.6817ZM138.1 31.078L137.126 31.3029C137.459 32.7446 138.19 33.9049 139.35 34.6928L139.912 33.8657L140.474 33.0385C139.787 32.5717 139.31 31.8735 139.075 30.8532L138.1 31.078ZM139.912 33.8657L139.35 34.6928C140.485 35.4642 141.9 35.8067 143.516 35.8067V34.8067V33.8067C142.173 33.8067 141.185 33.5219 140.474 33.0385L139.912 33.8657ZM143.516 34.8067V35.8067C145.172 35.8067 146.614 35.4673 147.753 34.6928L147.191 33.8657L146.629 33.0385C145.923 33.5187 144.914 33.8067 143.516 33.8067V34.8067ZM147.191 33.8657L147.749 34.6961C148.891 33.9296 149.594 32.872 149.594 31.5397H148.594H147.594C147.594 32.0539 147.362 32.547 146.634 33.0352L147.191 33.8657ZM148.594 31.5397H149.594C149.594 30.46 149.159 29.5364 148.333 28.8398L147.689 29.6043L147.044 30.3688C147.425 30.6902 147.594 31.0568 147.594 31.5397H148.594ZM147.689 29.6043L148.341 28.8461C147.566 28.18 146.455 27.7425 145.131 27.4552L144.919 28.4324L144.707 29.4097C145.892 29.6668 146.627 30.0106 147.036 30.3625L147.689 29.6043ZM144.919 28.4324L145.124 27.4537L140.472 26.4772L140.267 27.4559L140.061 28.4345L144.713 29.4111L144.919 28.4324ZM140.267 27.4559L140.47 26.4768C137.96 25.9544 136.241 25.1 135.177 24.0066L134.461 24.7037L133.744 25.4009C135.19 26.888 137.341 27.8683 140.063 28.4349L140.267 27.4559ZM134.461 24.7037L135.181 24.0098C134.126 22.9152 133.586 21.5299 133.596 19.7736L132.596 19.7676L131.596 19.7617C131.583 21.9827 132.286 23.8881 133.74 25.3976L134.461 24.7037ZM132.596 19.7676L133.596 19.7606C133.586 18.2771 133.984 17.0394 134.763 15.9997L133.963 15.3997L133.163 14.7997C132.097 16.2222 131.583 17.8964 131.596 19.7747L132.596 19.7676ZM133.963 15.3997L134.762 16.001C135.573 14.9231 136.714 14.0665 138.229 13.4495L137.852 12.5233L137.475 11.5971C135.676 12.3296 134.224 13.3905 133.164 14.7985L133.963 15.3997ZM137.852 12.5233L138.232 13.4481C139.758 12.8204 141.549 12.4935 143.622 12.4935V11.4935V10.4935C141.34 10.4935 139.283 10.8532 137.471 11.5985L137.852 12.5233ZM143.622 11.4935V12.4935C146.687 12.4935 148.967 13.1472 150.573 14.3385L151.169 13.5354L151.765 12.7323C149.701 11.2011 146.95 10.4935 143.622 10.4935V11.4935ZM151.169 13.5354L150.575 14.3403C152.212 15.5469 153.22 17.1631 153.613 19.2429L154.596 19.0574L155.578 18.8719C155.095 16.3116 153.818 14.2464 151.762 12.7305L151.169 13.5354Z" fill="black" mask="url(#path-1-outside-1_0_370)"/>
</svg>
